# xmcd
#
# Track frame offsets:
#	150
#	10921
#	20591
#	33487
#	45751
#	58638
#	71625
#	78645
#	92104
#	104225
#	114545
#	126399
#	140465
#	150461
#	162980
#	174145
#
# Disc length: 2513 seconds
#
# Revision: 1
# Processed by: cddbd v1.5.1PL2 Copyright (c) Steve Scherf et al.
# Submitted via: audiograbber 1.80
#
DISCID=d209cf10
DTITLE=Bogna i Kasia Soko³owskie - Jezus Malusienki - Najpiekniejsze Koledy Pol
DTITLE=skie
DYEAR=1900
DGENRE=
TTITLE0=Cicha noc
TTITLE1=Zasnij dziecino
TTITLE2=Mizerna, cicha
TTITLE3=Wesola nowine
TTITLE4=Jezus malusienki
TTITLE5=W zlobie lezy
TTITLE6=Pasterze mili
TTITLE7=Do szopy, hej pasterze
TTITLE8=Z narodzenia Pana
TTITLE9=Bog sie rodzi
TTITLE10=Dzisiaj w betlejem
TTITLE11=Oj maluski, maluski
TTITLE12=Aniol pasterzom mowil
TTITLE13=Medrcy swiata monarchowie
TTITLE14=Wsrod nocnej ciszy
TTITLE15=Gdy sliczna Panna
EXTD=Polish Christmas Songs
EXTT0=
EXTT1=
EXTT2=
EXTT3=
EXTT4=
EXTT5=
EXTT6=
EXTT7=
EXTT8=
EXTT9=
EXTT10=
EXTT11=
EXTT12=
EXTT13=
EXTT14=
EXTT15=
PLAYORDER=
